<svg xmlns="http://www.w3.org/2000/svg" version="1.1" xmlns:xlink="http://www.w3.org/1999/xlink" xmlns:svgjs="http://svgjs.dev/svgjs" width="1500" height="268" viewBox="0 0 1500 268"><g transform="matrix(1,0,0,1,-0.9090909090909918,-1.0511997239872244)"><svg viewBox="0 0 396 71" data-background-color="#fafafa" preserveAspectRatio="xMidYMid meet" height="268" width="1500" xmlns="http://www.w3.org/2000/svg" xmlns:xlink="http://www.w3.org/1999/xlink"><g id="tight-bounds" transform="matrix(1,0,0,1,0.2400000000000091,0.2784894791160184)"><svg viewBox="0 0 395.52 70.44302104176796" height="70.44302104176796" width="395.52"><g><svg viewBox="0 0 499.72588397714287 89.00232847926267" height="70.44302104176796" width="395.52"><g transform="matrix(1,0,0,1,104.20588397714286,12.300611244239633)"><svg viewBox="0 0 395.52 64.4011059907834" height="64.4011059907834" width="395.52"><g id="textblocktransform"><svg viewBox="0 0 395.52 64.4011059907834" height="64.4011059907834" width="395.52" id="textblock"><g><svg viewBox="0 0 395.52 64.4011059907834" height="64.4011059907834" width="395.52"><g transform="matrix(1,0,0,1,0,0)"><svg width="395.52" viewBox="4.98 -35.64 222.49 36.230000000000004" height="64.4011059907834" data-palette-color="#ffffff"><path d="M4.98 0L4.98-35.11 9.57-35.11 9.57 0 4.98 0ZM32.49-5.59L42.82-35.11 47.63-35.11 34.52 0.05 30.44 0.05 17.31-35.11 22.12-35.11 32.49-5.59ZM53.19-1.49L54.66-5.1Q55.66-4.71 56.77-4.37 57.88-4.03 59.04-3.78 60.2-3.54 61.37-3.39 62.54-3.25 63.67-3.25L63.67-3.25Q65.6-3.25 67.16-3.69 68.72-4.13 69.84-4.97 70.97-5.81 71.58-7.04 72.19-8.28 72.19-9.86L72.19-9.86Q72.19-11.45 71.61-12.46 71.04-13.48 69.95-14.16 68.87-14.84 67.28-15.32 65.69-15.8 63.67-16.31L63.67-16.31Q61.42-16.89 59.53-17.61 57.64-18.33 56.26-19.48 54.88-20.63 54.1-22.33 53.32-24.02 53.32-26.56L53.32-26.56Q53.32-28.64 54.15-30.32 54.98-32.01 56.49-33.19 58-34.38 60.13-35.01 62.25-35.64 64.81-35.64L64.81-35.64Q66.06-35.64 67.35-35.49 68.65-35.33 69.92-35.06 71.19-34.79 72.41-34.4 73.63-34.01 74.7-33.54L74.7-33.54 73.24-29.93Q72.36-30.27 71.44-30.62 70.53-30.96 69.5-31.23 68.48-31.49 67.32-31.65 66.16-31.81 64.81-31.81L64.81-31.81Q63.47-31.81 62.25-31.52 61.03-31.23 60.09-30.6 59.15-29.98 58.59-28.98 58.03-27.98 58.03-26.56L58.03-26.56Q58.03-24.98 58.6-23.96 59.17-22.95 60.26-22.27 61.35-21.58 62.93-21.11 64.52-20.63 66.55-20.12L66.55-20.12Q68.79-19.53 70.69-18.81 72.58-18.09 73.96-16.94 75.34-15.8 76.12-14.09 76.9-12.38 76.9-9.86L76.9-9.86Q76.9-7.2 75.91-5.24 74.92-3.27 73.15-1.98 71.38-0.68 68.95-0.05 66.52 0.59 63.67 0.59L63.67 0.59Q58.27 0.59 53.19-1.49L53.19-1.49ZM124.43-18.04L124.43-1.88Q121.52-0.68 118.41-0.05 115.3 0.59 112.37 0.59L112.37 0.59Q108.56 0.59 105.62-0.49 102.68-1.56 100.67-3.76 98.67-5.96 97.63-9.29 96.6-12.62 96.6-17.14L96.6-17.14Q96.6-22.05 97.66-25.56 98.72-29.08 100.75-31.31 102.77-33.54 105.74-34.59 108.71-35.64 112.51-35.64L112.51-35.64Q114.88-35.64 117.49-35.17 120.11-34.69 122.87-33.81L122.87-33.81 121.57-30.15Q119.11-30.98 116.95-31.4 114.78-31.81 112.59-31.81L112.59-31.81Q109.76-31.81 107.63-30.98 105.51-30.15 104.1-28.42 102.7-26.68 102-24 101.31-21.31 101.31-17.6L101.31-17.6Q101.31-13.94 101.96-11.23 102.6-8.52 103.95-6.75 105.29-4.98 107.36-4.11 109.44-3.25 112.27-3.25L112.27-3.25Q114.27-3.25 116.3-3.66 118.32-4.08 120.01-4.64L120.01-4.64 120.01-14.36 114.13-14.36 114.13-18.04 124.43-18.04ZM135.51-35.11L135.51-9.86Q135.51-7.86 135.56-6.51 135.61-5.15 135.68-4.13L135.68-4.13Q135.75-3.1 135.91-2.27 136.07-1.44 136.32-0.44L136.32-0.44Q135.29-0.17 134.26 0.06 133.24 0.29 132.21 0.46L132.21 0.46Q131.73-1.12 131.52-2.44 131.31-3.76 131.31-5.03L131.31-5.03 131.31-35.11 135.51-35.11ZM153.04-25.95L153.04-25.95Q154.23-25.95 155.53-25.77 156.82-25.59 158.07-25.07L158.07-25.07Q159.31-24.54 160.42-23.62 161.53-22.71 162.39-21.24L162.39-21.24Q163.24-19.75 163.73-17.66 164.22-15.58 164.22-12.7L164.22-12.7Q164.22-9.81 163.73-7.73 163.24-5.64 162.39-4.17L162.39-4.17Q161.53-2.69 160.42-1.76 159.31-0.83 158.07-0.32L158.07-0.32Q156.82 0.22 155.53 0.4 154.23 0.59 153.04 0.59L153.04 0.59Q151.86 0.59 150.58 0.4 149.3 0.22 148.06-0.32L148.06-0.32Q146.81-0.83 145.71-1.76 144.61-2.69 143.76-4.17L143.76-4.17Q142.9-5.64 142.42-7.73 141.93-9.81 141.93-12.7L141.93-12.7Q141.93-15.58 142.42-17.66 142.9-19.75 143.76-21.24L143.76-21.24Q144.61-22.71 145.71-23.62 146.81-24.54 148.06-25.07L148.06-25.07Q149.3-25.59 150.57-25.77 151.84-25.95 153.04-25.95ZM153.04-22.51L153.04-22.51Q151.65-22.51 150.41-22.07 149.18-21.63 148.25-20.53L148.25-20.53Q147.3-19.41 146.74-17.53 146.18-15.65 146.18-12.7L146.18-12.7Q146.18-9.77 146.74-7.87 147.3-5.98 148.25-4.88L148.25-4.88Q149.18-3.76 150.41-3.33 151.65-2.91 153.04-2.91L153.04-2.91Q154.45-2.91 155.71-3.33 156.97-3.76 157.92-4.88L157.92-4.88Q158.87-5.98 159.42-7.87 159.97-9.77 159.97-12.7L159.97-12.7Q159.97-15.65 159.42-17.53 158.87-19.41 157.92-20.53L157.92-20.53Q156.97-21.63 155.71-22.07 154.45-22.51 153.04-22.51ZM170.95-0.2L170.95-35.16 175.15-35.16 175.15-20.53 175.67-20.48Q176.81-23.02 178.38-24.34L178.38-24.34Q180.18-25.95 182.75-25.95L182.75-25.95Q187.21-25.95 189.58-22.19L189.58-22.19Q191.71-18.7 191.71-13.18L191.71-13.18Q191.71-6.47 188.51-2.83L188.51-2.83Q185.46 0.59 179.47 0.59L179.47 0.59Q176.2 0.59 170.95-0.2L170.95-0.2ZM174.91-14.99L174.91-14.99 174.91-3.47Q177.16-3 179.47-3L179.47-3Q183.43-3 185.41-5.32L185.41-5.32Q187.46-7.71 187.46-12.43L187.46-12.43Q187.46-16.7 186.53-19.02L186.53-19.02Q185.31-22.07 182.38-22.07L182.38-22.07Q179.82-22.07 177.86-19.92L177.86-19.92Q176.5-18.46 174.91-14.99ZM199.22-20.9L199.22-20.9 198.15-24.32Q202.25-25.95 206.74-25.95L206.74-25.95Q210.67-25.95 212.75-24.63L212.75-24.63Q215.12-23.12 215.12-19.48L215.12-19.48 215.12-9.5Q215.12-7.5 215.17-5.4L215.17-5.4Q215.19-4.15 215.41-2.81L215.41-2.81Q215.61-1.54 215.92-0.39L215.92-0.39 211.92 0.49Q211.36-1.15 211.21-3.17L211.21-3.17 210.72-3.22Q207.69 0.59 203.01 0.59L203.01 0.59Q199.59 0.59 197.51-1.31 195.44-3.2 195.44-6.64L195.44-6.64Q195.44-9.2 196.57-10.84 197.71-12.48 199.78-13.6L199.78-13.6Q203.06-15.38 208.94-15.38L208.94-15.38Q209.72-15.38 211.04-15.33L211.04-15.33 211.04-19.04Q211.04-20.8 209.97-21.58 208.89-22.36 206.6-22.36L206.6-22.36Q203.25-22.36 199.22-20.9ZM211.04-7.13L211.04-7.13 211.04-12.26Q210.38-12.3 209.11-12.3L209.11-12.3Q206.96-12.3 205.16-11.94L205.16-11.94Q202.47-11.4 200.99-10.24 199.52-9.08 199.52-6.91L199.52-6.91Q199.52-3 203.76-3L203.76-3Q205.96-3 207.87-4.17L207.87-4.17Q209.43-5.15 211.04-7.13ZM226.66-35.11L226.66-9.86Q226.66-7.86 226.71-6.51 226.76-5.15 226.83-4.13L226.83-4.13Q226.91-3.1 227.06-2.27 227.22-1.44 227.47-0.44L227.47-0.44Q226.44-0.17 225.42 0.06 224.39 0.29 223.37 0.46L223.37 0.46Q222.88-1.12 222.67-2.44 222.46-3.76 222.46-5.03L222.46-5.03 222.46-35.11 226.66-35.11Z" opacity="1" transform="matrix(1,0,0,1,0,0)" fill="#ffffff" class="wordmark-text-0" data-fill-palette-color="primary" id="text-0"></path></svg></g></svg></g></svg></g></svg></g><g><svg viewBox="0 0 89.00232847926267 89.00232847926267" height="89.00232847926267" width="89.00232847926267"><g><svg xmlns="http://www.w3.org/2000/svg" xmlns:xlink="http://www.w3.org/1999/xlink" version="1.1" x="0" y="0" viewBox="5 5 90 90" enable-background="new 0 0 100 100" xml:space="preserve" height="89.00232847926267" width="89.00232847926267" class="icon-icon-0" data-fill-palette-color="accent" id="icon-0"><path d="M50 5C25.2 5 5 25.2 5 50S25.2 95 50 95 95 74.8 95 50 74.8 5 50 5M91.6 38.4C88.2 32.8 82.5 28 75.3 24.7 71.9 17.5 67.2 11.7 61.6 8.4 76.1 12.4 87.6 23.9 91.6 38.4M78.1 40.5C73.2 39.5 67.5 38.8 61.6 38.4 61.2 32.5 60.5 26.9 59.5 21.9 64.7 22.7 69.6 24.1 73.9 26 75.9 30.3 77.3 35.2 78.1 40.5M76.4 27.2C85.2 31.7 91.3 38.4 92.9 46.1 90.4 43.9 85.8 42.2 80.1 40.9 79.3 35.9 78 31.3 76.4 27.2M78.9 50C78.9 52.6 78.7 55.2 78.4 57.7 73.7 58.7 68.1 59.5 61.8 60A164 164 0 0 0 61.8 40.2C68.1 40.7 73.7 41.4 78.4 42.5 78.7 44.8 78.9 47.4 78.9 50M50 60.3C46.5 60.3 43.2 60.2 40 60 39.8 56.8 39.7 53.5 39.7 50S39.8 43.2 40 40C43.2 39.8 46.5 39.7 50 39.7S56.8 39.8 60 40C60.2 43.2 60.3 46.5 60.3 50S60.2 56.8 60 60C56.8 60.2 53.5 60.3 50 60.3M59.9 61.8C59.4 68.1 58.7 73.7 57.6 78.4 55.1 78.7 52.6 78.9 49.9 78.9 47.3 78.9 44.7 78.7 42.2 78.4 41.2 73.7 40.4 68.1 39.9 61.8 43.2 62 46.5 62.1 49.8 62.1 53.3 62.1 56.6 62 59.9 61.8M21.1 50C21.1 47.4 21.3 44.8 21.6 42.3 26.3 41.3 31.9 40.5 38.2 40A164 164 0 0 0 38.2 59.8C31.9 59.3 26.3 58.6 21.6 57.5 21.3 55.2 21.1 52.6 21.1 50M50 7C52.6 7 55.2 11.7 57.2 19.9 54.8 19.6 52.4 19.4 50 19.4 47.5 19.4 45.1 19.6 42.8 19.9 44.8 11.7 47.5 7 50 7M50 21.1C52.6 21.1 55.2 21.3 57.7 21.6 58.7 26.3 59.5 31.9 60 38.2A164 164 0 0 0 40.2 38.2C40.7 31.9 41.4 26.3 42.5 21.6 44.8 21.3 47.4 21.1 50 21.1M59.1 20C57.8 14.3 56 9.7 53.9 7.2 61.6 8.8 68.3 14.9 72.8 23.7 68.7 22 64.1 20.7 59.1 20M40.9 20C36 20.7 31.4 21.9 27.2 23.6 31.7 14.8 38.4 8.7 46.1 7.1 43.9 9.7 42.2 14.3 40.9 20M40.5 21.9C39.5 26.8 38.8 32.5 38.4 38.4 32.5 38.8 26.9 39.5 21.9 40.5 22.7 35.3 24.1 30.4 26 26.1 30.3 24.1 35.2 22.7 40.5 21.9M20 40.9C14.3 42.2 9.7 44 7.2 46.1 8.8 38.4 14.9 31.7 23.7 27.2 22 31.3 20.7 35.9 20 40.9M19.8 42.8C19.5 45.2 19.4 47.6 19.4 50 19.4 52.5 19.5 54.9 19.8 57.2 11.6 55.2 6.8 52.5 6.8 50S11.6 44.8 19.8 42.8M20 59.1C20.7 64 21.9 68.6 23.6 72.8 14.9 68.3 8.8 61.6 7.2 53.9 9.7 56.1 14.3 57.8 20 59.1M21.9 59.5C26.8 60.5 32.5 61.2 38.4 61.6 38.8 67.5 39.5 73.1 40.5 78.1 35.2 77.3 30.3 75.9 26 74 24.1 69.7 22.7 64.8 21.9 59.5M40.9 80C42.2 85.7 44 90.3 46.1 92.8 38.4 91.2 31.7 85.1 27.2 76.3 31.3 78 35.9 79.3 40.9 80M42.8 80.2C45.2 80.5 47.6 80.6 50 80.6 52.5 80.6 54.9 80.5 57.2 80.2 55.2 88.4 52.5 93.2 50 93.2S44.8 88.4 42.8 80.2M59.1 80C64 79.3 68.6 78.1 72.8 76.4 68.3 85.2 61.6 91.3 53.9 92.9 56.1 90.3 57.8 85.7 59.1 80M59.5 78.1C60.5 73.2 61.2 67.5 61.6 61.6 67.5 61.2 73.1 60.5 78.1 59.5 77.3 64.8 75.9 69.7 74 74 69.7 75.9 64.8 77.3 59.5 78.1M80 59.1C85.7 57.8 90.3 56 92.8 53.9 91.2 61.6 85.1 68.3 76.3 72.8 78 68.7 79.3 64.1 80 59.1M80.2 57.2C80.5 54.8 80.6 52.4 80.6 50 80.6 47.5 80.5 45.1 80.2 42.8 88.4 44.8 93.2 47.5 93.2 50S88.4 55.2 80.2 57.2M38.4 8.4C32.8 11.8 28 17.5 24.7 24.7 17.5 28.1 11.7 32.8 8.4 38.4 12.4 23.9 23.9 12.4 38.4 8.4M8.4 61.6C11.8 67.2 17.5 72 24.7 75.3 28.1 82.5 32.8 88.3 38.4 91.6 23.9 87.6 12.4 76.1 8.4 61.6M61.6 91.6C67.2 88.2 72 82.5 75.3 75.3 82.5 71.9 88.3 67.2 91.6 61.6 87.6 76.1 76.1 87.6 61.6 91.6" fill="#feef22" data-fill-palette-color="accent"></path></svg></g></svg></g></svg></g><defs></defs></svg><rect width="395.52" height="70.44302104176796" fill="none" stroke="none" visibility="hidden"></rect></g></svg></g></svg>